<?xml version="1.0" standalone="no"?>
<!DOCTYPE svg PUBLIC "-//W3C//DTD SVG 20010904//EN"
 "http://www.w3.org/TR/2001/REC-SVG-20010904/DTD/svg10.dtd">
<svg version="1.0" xmlns="http://www.w3.org/2000/svg"
 width="700.000000pt" height="700.000000pt" viewBox="0 0 700.000000 700.000000"
 preserveAspectRatio="xMidYMid meet">
<metadata>
Created by potrace 1.11, written by Peter Selinger 2001-2013
</metadata>
<g transform="translate(0.000000,700.000000) scale(0.100000,-0.100000)"
fill="#000000" stroke="none">
<path d="M436 6831 c-6 -10 2 -1153 8 -1206 3 -27 8 -81 11 -120 3 -38 7 -86
10 -105 2 -19 7 -55 10 -80 57 -438 194 -897 379 -1268 124 -250 256 -470 386
-642 31 -41 61 -82 66 -92 5 -9 46 -60 91 -115 44 -54 82 -102 83 -108 2 -12
49 22 -775 -548 -357 -248 -652 -452 -654 -454 -3 -2 -4 -126 -4 -276 l0 -272
84 -110 c46 -61 154 -202 239 -314 534 -699 733 -960 756 -989 14 -18 32 -31
39 -28 7 2 147 98 311 212 165 114 335 232 379 263 44 30 109 75 145 100 771
533 1358 939 1368 945 8 5 77 -30 185 -95 95 -56 192 -113 217 -127 25 -14
176 -104 335 -200 160 -96 304 -182 321 -192 223 -128 681 -453 839 -595 22
-20 72 -65 110 -100 39 -34 108 -97 154 -139 47 -42 88 -76 93 -76 4 0 45 36
91 79 45 43 98 94 117 111 19 18 102 96 185 174 82 77 185 175 230 217 44 41
119 112 166 157 47 45 97 91 110 103 13 11 93 87 178 167 84 81 176 168 204
195 l51 48 0 275 c0 189 -4 278 -11 282 -6 4 -58 52 -115 107 -314 302 -498
458 -803 681 -111 82 -432 299 -515 348 -25 15 -83 51 -130 81 -47 30 -92 58
-100 62 -8 4 -37 21 -65 39 -27 17 -66 40 -85 51 -79 43 -200 115 -204 121 -2
4 326 7 730 7 483 0 735 3 737 10 2 5 3 777 3 1715 l-1 1705 -2978 1 c-1638 0
-2980 -2 -2981 -5z m5584 -350 c3 -1 5 -490 5 -1088 l0 -1088 -572 -1 -573 -1
0 546 0 546 -1375 -1 c-756 0 -1377 -2 -1379 -5 -2 -2 11 -41 29 -87 87 -215
216 -433 372 -627 290 -363 757 -730 1458 -1147 138 -82 257 -153 265 -158 8
-5 32 -19 53 -30 111 -60 736 -427 901 -529 469 -291 855 -574 1143 -839 l83
-76 -67 -64 c-119 -113 -273 -260 -448 -427 -193 -184 -284 -269 -294 -272 -6
-3 -21 10 -122 103 -43 38 -212 171 -339 265 -50 37 -311 212 -450 301 -30 19
-129 79 -220 133 -91 54 -176 105 -190 114 -14 8 -34 21 -45 26 -33 18 -426
250 -663 392 -123 73 -226 133 -229 133 -3 0 -136 -91 -297 -202 -160 -111
-397 -275 -526 -364 -129 -89 -239 -166 -245 -171 -5 -4 -44 -31 -85 -59 -41
-28 -277 -191 -524 -362 l-449 -311 -21 27 c-12 15 -87 113 -166 217 -80 105
-150 197 -157 205 -57 71 -315 415 -319 424 -2 6 21 30 53 52 32 22 292 202
578 400 286 199 633 439 770 534 138 96 282 195 322 222 40 27 75 53 78 59 4
5 -5 19 -19 30 -14 11 -32 26 -39 32 -6 7 -30 27 -52 46 -42 36 -220 198 -239
217 -208 216 -271 286 -389 435 -370 469 -644 1057 -751 1614 -8 44 -18 91
-21 105 -3 14 -7 45 -10 70 -3 25 -8 59 -10 75 -15 99 -22 165 -30 302 -11
169 -12 268 -4 278 5 7 877 10 2606 9 1429 -1 2600 -2 2603 -3z m-1510 -2413
c0 -236 -2 -428 -5 -428 -9 0 -419 242 -583 344 -134 83 -300 196 -457 311
-77 57 -244 193 -240 196 2 2 292 4 644 4 l641 0 0 -427z"/>
</g>
</svg>
