<?xml version="1.0" standalone="no"?>
<!DOCTYPE svg PUBLIC "-//W3C//DTD SVG 20010904//EN"
 "http://www.w3.org/TR/2001/REC-SVG-20010904/DTD/svg10.dtd">
<svg version="1.0" xmlns="http://www.w3.org/2000/svg"
 width="656.000000pt" height="656.000000pt" viewBox="0 0 656.000000 656.000000"
 preserveAspectRatio="xMidYMid meet">
<metadata>
Created by potrace 1.14, written by Peter Selinger 2001-2017
</metadata>
<g transform="translate(0.000000,656.000000) scale(0.100000,-0.100000)"
fill="#000000" stroke="none">
<path d="M369 6478 c-4 -94 1 -1004 5 -1083 8 -139 21 -280 30 -325 3 -14 8
-47 11 -74 3 -27 8 -59 10 -70 3 -12 7 -37 10 -56 2 -19 7 -46 10 -60 3 -14 8
-38 11 -55 29 -166 141 -534 209 -690 7 -16 21 -50 31 -75 28 -70 126 -265
183 -364 28 -49 51 -90 51 -92 0 -5 63 -108 70 -114 3 -3 21 -30 40 -60 19
-30 37 -57 40 -60 3 -3 34 -45 69 -95 36 -49 83 -112 105 -140 23 -27 44 -54
48 -60 5 -5 22 -25 39 -44 l30 -34 -33 -29 c-18 -15 -36 -28 -40 -28 -4 0 -16
-7 -25 -15 -10 -8 -99 -70 -198 -139 -99 -68 -188 -131 -197 -140 -10 -9 -20
-16 -23 -16 -2 0 -62 -40 -132 -90 -71 -49 -135 -94 -143 -100 -8 -5 -69 -48
-135 -95 -66 -47 -127 -88 -135 -92 -8 -4 -20 -12 -27 -17 -6 -6 -41 -31 -78
-56 -36 -25 -95 -66 -130 -92 -34 -26 -65 -44 -69 -41 -3 4 -6 -114 -6 -261
l0 -268 37 -52 c21 -28 40 -53 43 -56 8 -6 83 -105 125 -165 17 -23 42 -57 58
-76 37 -46 39 -49 67 -88 14 -19 31 -42 37 -50 17 -21 162 -211 190 -247 12
-16 81 -107 153 -202 72 -96 137 -181 145 -189 8 -8 15 -18 15 -22 0 -4 8 -16
18 -27 10 -10 51 -63 91 -116 l73 -97 26 17 c15 9 29 19 32 22 3 3 32 23 65
45 33 22 65 44 70 48 8 7 174 123 225 157 8 6 51 36 94 66 44 31 129 90 190
132 60 41 115 79 120 84 6 4 56 39 111 77 55 38 105 73 110 78 6 5 42 30 80
56 39 26 81 55 95 64 14 10 122 85 240 168 118 82 242 169 275 192 33 24 67
46 75 50 8 4 17 9 20 13 3 4 57 42 120 85 63 43 125 87 137 98 l22 19 167 -98
c92 -55 188 -111 213 -127 25 -15 53 -30 61 -34 8 -3 34 -19 57 -35 23 -15 44
-28 46 -28 9 0 162 -94 169 -104 4 -6 8 -7 8 -2 0 5 8 2 18 -6 9 -8 64 -43
122 -77 58 -35 132 -80 165 -102 33 -21 67 -42 75 -46 61 -28 442 -296 580
-407 84 -67 118 -98 297 -263 48 -44 104 -95 123 -112 l35 -30 44 42 c92 88
322 306 431 407 60 56 311 293 370 350 26 25 121 116 211 202 90 86 174 165
187 176 22 19 22 22 22 281 l0 262 -67 65 c-169 163 -336 319 -404 376 -24 20
-55 46 -69 58 -14 12 -41 34 -60 49 -19 14 -37 28 -40 31 -7 8 -112 91 -141
112 -13 9 -33 24 -44 33 -66 52 -295 210 -485 335 -8 5 -35 23 -60 40 -25 16
-50 30 -57 30 -6 0 -13 4 -15 8 -4 11 -335 213 -450 275 -21 11 -36 23 -33 25
3 3 316 5 697 6 l693 1 3 1638 2 1637 -2830 0 -2830 0 -1 -22z m5302 -317 c4
-1 6 -470 5 -1043 l-1 -1042 -70 3 c-83 3 -87 3 -145 1 -25 0 -80 -1 -124 -1
-43 1 -82 -1 -86 -4 -5 -3 -11 -1 -15 5 -4 6 -11 7 -17 4 -5 -3 -44 -5 -86 -4
-43 0 -84 1 -92 2 -8 0 -35 -1 -60 -2 -25 0 -80 -1 -124 -1 -43 1 -82 -1 -86
-4 -5 -3 -11 -1 -14 4 -4 5 -19 6 -34 3 -15 -4 -49 -5 -77 -2 l-50 5 -3 518
c-2 483 -3 517 -20 518 -109 5 -2083 0 -2091 -5 -6 -4 -11 -4 -11 1 0 9 -487
9 -496 1 -8 -8 70 -190 131 -306 59 -111 154 -258 220 -341 142 -176 293 -329
500 -502 22 -19 42 -36 45 -40 25 -27 352 -263 510 -366 148 -98 182 -118 330
-206 80 -48 150 -90 156 -94 11 -9 36 -23 103 -61 25 -14 79 -45 119 -69 41
-24 78 -43 83 -43 5 0 9 -4 9 -9 0 -5 10 -13 22 -16 11 -4 61 -31 109 -60 48
-29 102 -59 119 -66 16 -8 30 -17 30 -21 0 -5 4 -8 9 -8 9 0 394 -229 501
-298 190 -123 386 -254 453 -304 43 -32 82 -58 87 -58 6 0 10 -3 10 -7 0 -5
25 -26 55 -47 30 -22 55 -44 55 -49 0 -6 3 -8 6 -4 3 3 15 -3 27 -13 139 -115
309 -261 349 -300 l51 -47 -45 -44 c-25 -24 -114 -109 -197 -189 -84 -80 -192
-183 -240 -230 -213 -205 -282 -270 -290 -270 -4 0 -19 12 -33 28 -34 37 -176
157 -283 240 -166 127 -489 345 -663 447 -9 6 -53 32 -97 59 -73 45 -94 57
-166 98 -13 7 -26 15 -29 18 -5 5 -25 17 -99 57 -25 14 -53 32 -62 39 -8 8
-19 14 -23 14 -4 0 -32 16 -62 35 -30 19 -57 35 -59 35 -3 0 -34 17 -68 38
-34 21 -152 92 -262 157 -110 65 -207 124 -216 131 -13 12 -40 -4 -190 -108
-96 -67 -177 -126 -181 -132 -4 -6 -8 -7 -8 -3 0 9 -73 -43 -78 -55 -2 -5 -10
-8 -18 -8 -8 0 -14 -4 -14 -10 0 -5 -7 -10 -15 -10 -8 0 -15 -4 -15 -8 0 -4
-15 -16 -32 -27 -18 -10 -35 -21 -38 -24 -3 -4 -18 -15 -35 -25 -16 -11 -34
-23 -40 -28 -10 -9 -80 -58 -327 -228 -68 -46 -125 -87 -128 -90 -3 -3 -23
-17 -45 -30 -22 -13 -42 -27 -45 -30 -3 -4 -50 -38 -105 -75 -55 -38 -140 -98
-190 -132 -49 -35 -97 -68 -105 -73 -8 -6 -107 -75 -220 -154 l-205 -144 -23
21 c-12 11 -22 26 -22 33 0 7 -4 14 -8 16 -5 2 -28 30 -53 63 -24 33 -52 69
-61 79 -10 11 -30 38 -45 60 -15 23 -30 43 -33 46 -3 3 -21 25 -40 50 -19 25
-43 54 -52 64 -10 11 -18 23 -18 27 0 4 -6 14 -13 21 -7 7 -28 33 -47 58 -19
25 -38 47 -42 48 -5 2 -8 8 -8 13 0 5 -38 58 -85 118 -47 61 -85 116 -84 123
0 11 124 100 197 143 9 6 21 16 25 22 4 7 13 13 19 13 5 0 27 13 47 28 20 16
88 64 151 107 63 43 117 81 120 84 3 3 34 26 70 50 89 60 154 105 160 111 3 3
32 23 65 45 33 22 62 42 65 45 3 3 32 23 65 45 33 21 62 41 65 45 3 3 29 21
58 40 28 18 52 37 52 42 0 5 4 7 9 3 5 -3 12 -1 15 4 3 5 90 67 192 138 102
70 207 144 234 163 56 41 79 57 100 70 10 7 12 12 4 18 -80 54 -376 334 -530
502 -51 56 -186 222 -239 295 -16 22 -31 42 -35 45 -14 13 -140 210 -140 219
0 6 -4 11 -8 11 -4 0 -20 24 -36 53 -15 28 -39 72 -53 97 -142 254 -251 531
-332 840 -30 115 -51 213 -66 305 -18 116 -23 146 -30 225 -3 36 -8 85 -11
110 -6 49 -14 204 -15 289 -1 29 3 56 9 60 8 4 4913 7 4943 2z m-1439 -1906
c10 -14 12 -794 3 -804 -3 -2 -11 2 -20 9 -8 7 -15 9 -15 5 0 -5 -8 -1 -17 7
-27 22 -160 98 -172 98 -6 0 -11 4 -11 9 0 5 -8 11 -17 14 -20 6 -75 38 -83
48 -3 3 -16 12 -30 19 -36 18 -275 168 -340 213 -30 21 -73 50 -95 64 -54 35
-331 244 -375 282 -19 17 -39 31 -43 31 -5 0 -6 3 -4 8 8 11 1211 9 1219 -3z"/>
</g>
</svg>
