<svg width="154" height="150" viewBox="0 0 154 150" fill="none" xmlns="http://www.w3.org/2000/svg">
<path d="M8.63021 -6.14006e-06V7.83507V12.1283L8.71601 11.9492C8.71601 12.0089 8.7211 12.0686 8.72315 12.1283H8.63043V19.9634C8.63043 27.5269 9.40278 34.634 10.8364 41.2922C11.314 43.5107 11.8644 45.6805 12.4849 47.8017C12.9629 49.4362 13.5164 51.013 14.0735 52.5867V52.7421L14.5462 54.0099V54.0109C15.2982 56.0295 16.1137 57.9996 16.9885 59.9206C18.409 63.0397 20.0191 65.9929 21.7246 68.8529V68.9969L22.8954 70.8541V70.8551C24.5547 73.4885 26.3545 75.975 28.2158 78.3879V78.5215L29.9471 80.6402V80.6412C30.6909 81.5521 31.4514 82.4416 32.2199 83.3208L4.06887e-06 105.579V117.707L24.7134 150L74.2888 115.751C91.673 126.113 108.144 134.912 118.448 144.708C124.281 150 124.281 150 124.281 150C128.851 145.661 141.673 133.729 146.24 129.396C146.24 129.394 146.251 129.386 146.253 129.384C146.951 128.723 147.637 128.071 148.138 127.595C148.138 127.594 148.166 127.567 148.166 127.567V127.566V127.565C148.166 127.564 148.165 127.564 148.171 127.562L154 122.024V109.896L148.172 104.356C145.418 101.738 142.577 99.2789 139.681 96.9555C129.534 88.8148 118.735 82.265 108.439 76.3335H141.557V64.2052V44.2418V32.1135V12.1501V0.0217854H116.026V-6.14006e-06H42.4068H29.8362H8.63021V-6.14006e-06ZM16.8767 7.83507H29.8352H42.4058H107.779V7.85687H133.309V32.1135V56.3701H107.779V32.1135H46.1945C46.6382 33.349 47.1139 34.5525 47.6296 35.7188V35.7198C48.1904 36.9882 48.7938 38.2177 49.4366 39.4114V39.4124C50.0795 40.6061 50.7633 41.7642 51.485 42.8908V42.8918C52.2068 44.0183 52.9675 45.1128 53.7648 46.1797V46.1807C54.5621 47.2476 55.3964 48.2861 56.266 49.3009V49.3019C61.4847 55.3918 67.9766 60.6109 75.3896 65.7728C92.6871 77.8175 115.205 87.5739 134.36 102.942C137.097 105.137 139.764 107.447 142.339 109.894C140.334 111.798 140.401 111.735 140.834 111.324C140.796 111.36 140.767 111.388 140.733 111.42C138.772 113.282 128.85 122.699 124.281 127.041V127.042C111.602 114.988 92.7786 105.687 73.9367 94.1787L26.5333 126.927L11.5193 107.309L52.1702 79.2258C49.2953 76.889 46.4973 74.4111 43.82 71.7716C41.2462 69.2341 38.7818 66.5509 36.4621 63.71V63.7091C34.1424 60.8682 31.9665 57.8702 29.9708 54.7028V54.7018C27.9753 51.5344 26.1583 48.1979 24.5567 44.6808C23.7559 42.9224 23.0089 41.1187 22.3197 39.2685V39.2675C21.6304 37.4171 20.9989 35.5208 20.43 33.5757C19.861 31.6303 19.355 29.637 18.9151 27.594C17.5957 21.4661 16.8767 14.8932 16.8767 7.83529V7.83507ZM70.5479 52.0769H99.5336V64.2052V71.2453C92.5601 67.264 85.9965 63.4442 80.2653 59.4534C76.72 56.9847 73.476 54.5529 70.5479 52.0769V52.0769Z" fill="#E9C64A"/>
</svg>
