<svg fill="none" height="180" viewBox="0 0 183 180" width="183" xmlns="http://www.w3.org/2000/svg"><path d="m10.2554-.00000737v9.40209737 5.15191l.1019-.2149c0 .0716.0061.1433.0085.2149h-.1102v9.4021c0 9.0761.9178 17.6047 2.6214 25.5945.5676 2.6622 1.2216 5.266 1.9589 7.8114.5681 1.9615 1.2259 3.8536 1.8878 5.742v.1865l.5617 1.5213v.0012c.8936 2.4224 1.8627 4.7865 2.9023 7.0917 1.6879 3.743 3.6012 7.2868 5.6279 10.7188v.1728l1.3913 2.2286v.0012c1.9717 3.1601 4.1105 6.1439 6.3223 9.0394v.1603l2.0573 2.5424v.0012c.8839 1.0931 1.7876 2.1605 2.7008 3.2155l-38.28729516 26.7101v14.554l29.36719516 38.751 58.9111-41.099c20.6577 12.435 40.2307 22.993 52.4747 34.749 6.932 6.35 6.932 6.35 6.932 6.35 5.43-5.206 20.667-19.525 26.094-24.725 0-.002.013-.012.015-.015.829-.792 1.644-1.575 2.24-2.146 0-.001.033-.033.033-.033v-.001-.002c0-.001 0-.001.006-.003l6.927-6.646v-14.554l-6.926-6.648c-3.272-3.142-6.648-6.092-10.09-8.88-12.057-9.769-24.89-17.629-37.124-24.7468h39.353v-14.5539-23.9561-14.554-23.9561-14.5539576h-30.337v-.02614977h-87.4835-14.9378zm9.7993 9.40209737h15.3988 14.9379 77.6836v.02615h30.338v29.10796 29.108h-30.338v-29.108h-73.1816c.5273 1.4826 1.0926 2.9267 1.7054 4.3264v.0012c.6664 1.522 1.3834 2.9975 2.1473 4.4299v.0012c.764 1.4324 1.5765 2.8222 2.4342 4.174v.0013c.8576 1.3518 1.7616 2.6652 2.709 3.9454v.0013c.9475 1.2803 1.9388 2.5265 2.9722 3.7442v.0012c6.2015 7.3078 13.9159 13.5708 22.7249 19.765 20.5546 14.4537 47.3136 26.1617 70.0756 44.6037 3.252 2.634 6.422 5.405 9.481 8.342-2.382 2.285-2.303 2.209-1.789 1.716-.044.042-.079.076-.119.115-2.331 2.234-14.121 13.535-19.551 18.745v.001c-15.066-14.464-37.434-25.625-59.8242-39.436l-56.33 39.298-17.8413-23.542 48.3059-33.6991c-3.4163-2.8041-6.7411-5.7776-9.9226-8.945-3.0585-3.045-5.9869-6.2648-8.7435-9.6738v-.0012c-2.7565-3.4091-5.3421-7.0066-7.7136-10.8075v-.0012c-2.3714-3.8009-4.5305-7.8048-6.4337-12.0253-.9516-2.11-1.8392-4.2745-2.6582-6.4946v-.0013c-.8191-2.2205-1.5696-4.496-2.2456-6.8301-.6762-2.3345-1.2775-4.7265-1.8001-7.1781-1.568-7.3534-2.4224-15.2409-2.4224-23.71045zm63.7782 53.09021h34.4441v14.554 8.4481c-8.287-4.7776-16.086-9.3613-22.8968-14.1503-4.2129-2.9624-8.0678-5.8806-11.5473-8.8518z" fill="#000"/></svg>